<svg width="99" height="60" viewBox="0 0 99 60" fill="none" xmlns="http://www.w3.org/2000/svg">
<path d="M14.5786 26.9578C15.5673 26.9578 16.3687 26.1531 16.3687 25.1605C16.3687 24.1679 15.5673 23.3633 14.5786 23.3633C13.59 23.3633 12.7886 24.1679 12.7886 25.1605C12.7886 26.1531 13.59 26.9578 14.5786 26.9578Z" fill="#FF595A"/>
<path d="M96.6471 12.5806C95.2701 12.8571 93.8931 12.8571 92.7915 12.5806C93.2046 12.0277 93.48 11.3364 93.6177 10.7834C94.1685 8.70968 93.6177 6.4977 92.3784 5.25346C91.4145 4.28571 90.1752 3.87097 88.7983 4.00922C87.0082 4.28571 86.182 5.25346 85.7689 6.08295C85.0804 7.60369 85.2181 9.53917 86.3197 11.6129C86.5951 12.1659 87.1459 12.7189 87.6967 13.2719C86.8705 13.6866 86.182 13.9631 85.4935 14.2396C85.3558 13.5484 85.2181 13.1336 85.2181 13.1336C83.5657 8.01843 79.5725 4.28571 73.9269 2.21198C70.3467 0.829493 63.0487 0 55.1999 0C51.2067 0 47.3512 0.276498 43.9087 0.691244C33.8567 1.93548 22.0147 6.4977 16.3691 11.3364C14.9921 10.5069 12.1005 8.98618 10.1727 8.98618C10.1727 8.98618 9.89728 8.98618 9.75959 8.98618C7.28102 9.26267 3.97627 10.0922 3.15008 10.3687C2.32389 10.6452 1.7731 11.4747 1.9108 12.3041C2.18619 14.1014 5.62864 16.8664 9.89728 17.8341C9.0711 18.8018 8.38261 20.1843 7.96951 21.8433C7.28102 25.4378 6.17944 27.788 4.38936 28.6175C3.83857 28.894 2.87468 29.3088 2.18619 29.3088C1.4977 29.3088 0.396119 29.7235 0.120723 31.9355C-0.292371 34.5622 0.258421 39.1244 3.28778 39.9539C6.86793 41.0599 13.3397 42.1659 18.5723 41.8894C18.71 41.8894 21.0508 41.7512 23.6671 40.9217C23.8048 42.7189 23.9425 45.4839 24.0802 47.4194C24.4933 50.4608 24.3556 52.2581 23.5294 53.3641C22.2901 55.023 21.6016 56.129 21.6016 57.5115C21.6016 59.0323 22.5655 60 24.0802 60H28.2111C29.3127 60 30.2766 59.1705 30.4143 57.788C30.6897 57.6498 31.1028 57.235 31.2405 56.682C31.3782 55.9908 31.5159 55.023 31.6536 52.8111C31.6536 52.3963 32.2044 51.4286 32.7552 50.3226C33.719 48.3871 35.096 45.6221 35.6468 42.1659C38.4008 42.9954 44.4595 44.5161 51.2067 44.5161C56.5769 44.5161 61.2587 43.5484 65.2519 41.7512C65.9404 44.2396 67.4551 48.5253 71.1729 50.0461C71.8614 50.3226 72.2745 50.7373 72.4122 51.0138C72.5499 51.7051 71.3106 53.2258 70.4844 54.0553C70.0713 54.47 69.7959 54.8848 69.5205 55.1613C68.5567 56.5438 68.0059 57.5115 68.6944 58.7558C69.3828 60 71.0352 60 72.2745 60H76.5431C76.9562 60 77.507 59.7235 77.7824 59.447C78.3332 58.7558 78.1955 57.9263 77.9201 57.235V57.0968C78.1955 56.8203 78.7463 56.4055 79.0217 55.7143L79.2971 55.1613C80.5364 52.1198 81.9134 48.8018 82.0511 46.8664C82.1888 45.0691 80.9495 43.9631 79.9856 42.9954C79.1594 42.3041 78.4709 41.4747 78.3332 40.5069C78.1955 39.9539 79.1594 38.7097 80.1233 37.4654C82.1888 34.7005 85.4935 30.4147 86.182 23.0876C86.3197 21.4286 86.4574 19.9078 86.3197 18.3871C86.3197 17.8341 86.182 17.4194 86.182 17.0046C87.2836 16.5899 89.0737 15.8986 90.5883 14.9309C92.5161 15.6221 94.857 15.8986 97.1978 15.4839C97.8863 15.3456 98.4371 14.6544 98.2994 13.8249C98.024 12.9954 97.3356 12.4424 96.6471 12.5806ZM83.428 22.6728C82.7396 29.1705 79.8479 32.9032 77.9201 35.6682C76.4054 37.6037 75.3039 39.1244 75.7169 40.9217C76.1301 42.7189 77.2316 43.9631 78.1955 44.7926C79.0217 45.6221 79.4348 46.0369 79.4348 46.5899C79.2971 48.3871 77.507 52.5346 76.8185 53.917L76.5431 54.6083C76.5431 54.6083 76.4054 54.7465 76.2677 54.8848C75.8547 55.1613 75.3039 55.7143 75.3039 56.682C75.3039 56.8203 75.3039 57.0968 75.3039 57.235H72.2745C71.9991 57.235 71.7237 57.235 71.4483 57.235C71.586 57.0968 71.7237 56.9585 71.8614 56.682C71.9991 56.4055 72.2745 56.129 72.5499 55.8525C73.7892 54.47 75.5793 52.5346 75.0285 50.4608C74.7531 49.2166 73.7892 48.2489 72.2745 47.5576C68.419 45.8986 67.5928 39.5392 67.5928 39.5392C67.5928 39.1244 67.3174 38.7097 66.9043 38.4332C66.4912 38.2949 66.0781 38.2949 65.665 38.4332C61.8095 40.6452 56.99 41.7512 51.3444 41.7512C42.6694 41.7512 35.096 39.1244 35.096 39.1244C34.6829 38.9862 34.2698 38.9862 33.8567 39.2627C33.4437 39.5392 33.306 39.9539 33.306 40.3687C33.0306 44.1014 31.6536 47.0046 30.552 49.2166C29.8635 50.5991 29.3127 51.7051 29.175 52.6728C29.0373 54.0553 29.0373 55.023 28.8996 55.7143C28.2111 56.129 27.9357 56.682 27.9357 57.3733H24.4933C24.631 56.9585 24.9064 56.4055 25.8703 55.1613C27.5226 52.9493 27.3849 49.9078 26.9718 47.1429C26.5588 44.3779 26.4211 39.1244 26.4211 38.9862C26.4211 38.5714 26.1457 38.0184 25.7326 37.8802C25.3195 37.6037 24.7687 37.6037 24.3556 37.8802C21.7393 39.2627 18.4346 39.4009 18.4346 39.4009C12.6512 39.5392 6.45483 38.1567 3.97627 37.4654C3.56317 37.3272 3.28778 36.7742 3.01238 36.3594C2.46159 34.8387 2.46159 32.9032 2.59929 32.0737C3.97627 31.9355 5.35325 31.106 5.62864 30.9677C8.10721 29.7235 9.89728 26.8203 10.7235 22.2581C11.1366 19.6313 13.6151 17.9724 13.6151 17.9724C14.1659 17.6959 14.3036 17.0046 14.1659 16.4516C14.0282 15.8986 13.4774 15.4839 12.9266 15.4839C9.48419 15.4839 6.59253 13.8249 5.21555 12.7189C6.59253 12.4424 8.5203 11.8894 10.1727 11.7512C11.5497 11.7512 14.3036 13.2719 15.8183 14.2396C16.3691 14.5161 17.0576 14.5161 17.4707 14.1014C22.4278 9.40092 34.4075 4.70046 44.3218 3.45622C47.4889 2.90323 51.2067 2.76498 55.1999 2.76498C62.7733 2.76498 69.7959 3.59447 73.1007 4.83871C78.0578 6.63594 81.2249 9.81567 82.7396 14.2396C82.7396 14.2396 83.428 15.8986 83.5657 18.5253C83.5657 19.7696 83.5657 21.1521 83.428 22.6728ZM91.0014 10.0922C90.8637 10.6452 90.5883 11.0599 90.1752 11.4747C89.6245 11.0599 89.0737 10.6452 88.936 10.2304C88.2475 8.98618 88.1098 7.88018 88.3852 7.18894C88.3852 7.05069 88.6606 6.77419 89.3491 6.63594C89.4868 6.63594 89.4868 6.63594 89.6245 6.63594C90.0376 6.63594 90.313 6.77419 90.4507 7.05069C91.0014 7.74194 91.2768 8.98618 91.0014 10.0922Z" fill="#FF595A"/>
</svg>
