<svg width="79" height="60" viewBox="0 0 79 60" fill="none" xmlns="http://www.w3.org/2000/svg">
<path d="M66.2509 6.52645H18.0566C17.4071 4.17883 15.4585 2.61375 12.9904 2.61375H4.41673L2.20836 0.396554C1.81865 0.00528454 1.29904 -0.125139 0.779422 0.135708C0.389711 0.266131 0 0.787824 0 1.30952V2.74417C0 6.2656 2.85788 9.13492 6.36528 9.13492H7.92412L1.03923 19.0471C-0.129904 20.7426 -0.259807 22.9598 0.779422 24.7857C1.81865 26.4812 3.5074 27.3942 5.45595 27.3942H14.1595C14.6791 27.3942 15.0688 27.655 15.3286 28.0463L23.3827 39.5235V58.6958C23.3827 59.4783 23.9023 60 24.6817 60H29.8778C30.5274 60 31.047 59.6087 31.1769 58.9566L34.8142 41.7407H64.4322L67.42 44.7405L64.9518 58.4349C64.8219 58.8262 64.9518 59.2175 65.2117 59.4783C65.4715 59.7392 65.8612 60 66.2509 60H71.447C71.9666 60 72.6162 59.6087 72.7461 59.087L77.9422 43.4362C78.0721 43.1754 78.0721 42.7841 77.9422 42.5233L75.9937 37.5672C75.6039 36.7847 75.6039 36.0021 75.7338 35.2196L77.9422 26.3508C77.9422 26.2204 77.9422 26.0899 77.9422 26.0899V18.2645C77.9422 11.7434 72.7461 6.52645 66.2509 6.52645ZM75.3441 19.5688V22.0468C75.3441 23.3511 74.4348 24.5249 73.1358 24.7857C71.447 25.0466 70.148 23.7423 70.148 22.1772V20.873C70.148 18.0037 67.8097 15.6561 64.9518 15.6561H62.3538C61.5743 15.6561 61.0547 16.1778 61.0547 16.9603C61.0547 17.7429 61.5743 18.2645 62.3538 18.2645H64.9518C66.3808 18.2645 67.5499 19.4384 67.5499 20.873V22.1772C67.5499 25.0466 69.8882 27.3942 72.7461 27.3942C73.5255 27.3942 74.4348 27.1333 75.0843 26.7421L73.1358 34.5675C72.7461 35.8717 72.876 37.3063 73.3956 38.6106L75.3441 43.045L70.5377 57.3915H67.8097L70.148 44.6101C70.2779 44.2188 70.148 43.6971 69.7583 43.4362L63.0033 36.5238C61.8342 35.35 61.0547 33.6545 61.0547 31.959V30.0026C61.0547 29.2201 60.5351 28.6984 59.7557 28.6984C58.9763 28.6984 58.4567 29.2201 58.4567 30.0026V31.959C58.4567 34.437 59.366 36.7847 61.0547 38.4802L61.7043 39.1323H33.775C33.1254 39.1323 32.6058 39.5235 32.4759 40.1757L28.8386 57.3915H25.9807V39.1323C25.9807 38.8714 25.8508 38.6106 25.7209 38.3497L17.4071 26.6116C16.7576 25.4378 15.4585 24.7857 14.0296 24.7857H5.45595C4.41673 24.7857 3.5074 24.264 2.98778 23.4815C2.46817 22.5685 2.46817 21.3947 3.11769 20.6122L11.4315 8.61322C11.6913 8.22195 11.6913 7.70026 11.5614 7.30899C11.3016 6.7873 10.9119 6.52645 10.3923 6.52645H6.36528C5.19615 6.52645 4.15692 6.00476 3.5074 5.09179C3.6373 5.22222 3.76721 5.22222 3.89711 5.22222H12.9904C14.4193 5.22222 15.5884 6.39603 15.5884 7.83068C15.5884 8.4828 16.238 9.13492 16.8875 9.13492H66.2509C71.3171 9.13492 75.3441 13.178 75.3441 18.2645V19.5688Z" fill="#FF595A"/>
<path d="M12.2117 16.0473C13.1444 16.0473 13.9004 15.2882 13.9004 14.3518C13.9004 13.4154 13.1444 12.6562 12.2117 12.6562C11.279 12.6562 10.5229 13.4154 10.5229 14.3518C10.5229 15.2882 11.279 16.0473 12.2117 16.0473Z" fill="#FF595A"/>
</svg>
