<svg width="55" height="60" viewBox="0 0 55 60" fill="none" xmlns="http://www.w3.org/2000/svg">
<path d="M40.2617 10.8594C40.2617 11.5242 40.8155 12.0782 41.4801 12.0782C42.1447 12.0782 42.6985 11.5242 42.6985 10.8594C42.6985 10.1946 42.1447 9.64054 41.4801 9.64054C40.8155 9.58514 40.2617 10.1392 40.2617 10.8594Z" fill="#FF595A"/>
<path d="M33.8374 0H32.8959C27.0256 0 21.543 1.93906 17.0018 5.65097L16.8356 5.76177H14.6204C6.59026 5.76177 0 12.3546 0 20.4432C0 21.108 0.553804 21.6621 1.21837 21.6621H7.91939L7.86401 22.2715C7.75325 23.2687 7.69787 24.2659 7.69787 25.2078C7.69787 39.1136 18.9955 50.4155 32.8959 50.4155H33.339L42.5875 59.6676C43.0306 60.1108 43.8613 60.1108 44.3597 59.6676C46.1319 57.8947 47.1287 55.5679 47.1287 53.0194C47.1287 51.0249 46.5195 49.1967 45.4119 47.59L45.1904 47.2576L45.4119 46.9252C46.5195 45.3186 47.1287 43.4349 47.1287 41.4958C47.1287 39.0028 46.1319 36.6205 44.3597 34.8476C43.9166 34.4044 43.0859 34.4044 42.5875 34.8476L33.339 44.1551H32.8959C26.6933 44.1551 21.6537 39.1136 21.6537 32.9086C21.6537 26.7036 26.6933 21.6621 32.8959 21.6621H41.9783C45.4673 21.6621 50.23 21.6621 52.6667 19.2244C53.7743 18.1163 54.3281 16.6205 54.3281 14.626C54.2728 8.53186 46.5195 0 33.8374 0ZM35.1112 45.8726L43.4182 37.5623L43.7505 38.2271C44.3043 39.2244 44.5812 40.3878 44.5812 41.5513C44.5812 43.3795 43.8613 45.1524 42.5875 46.4266C42.0891 46.9252 42.0891 47.7008 42.5875 48.1994C43.9166 49.5291 44.5812 51.2465 44.5812 53.0748C44.5812 54.2382 44.3043 55.4017 43.7505 56.3989L43.4182 57.0637L35.1112 48.7535V45.8726ZM8.41782 19.169H2.49212L2.60288 18.5042C3.1013 15.2355 5.81494 9.36288 12.8482 8.31025L14.2881 8.08864L13.4021 9.19668C11.0761 12.0776 9.41466 15.2909 8.52858 18.7812L8.41782 19.169ZM32.619 19.169L32.1206 19.2244C24.8658 19.6122 19.217 25.651 19.217 32.9086C19.217 40.1662 24.8658 46.205 32.1206 46.5928L32.619 46.6482V48.0332H32.0652C19.7708 47.59 10.19 37.6177 10.19 25.3186C10.19 13.0194 19.8262 3.04709 32.0652 2.60388H32.619V19.169ZM41.5353 19.169H35.1112V2.49307L35.7203 2.54848C40.2615 2.88089 44.4704 4.54294 47.5717 7.20222C50.1746 9.47368 51.836 12.2992 51.836 14.6814C51.7806 18.7258 48.5132 19.169 41.5353 19.169Z" fill="#FF595A"/>
</svg>
