<svg width="20" height="27" viewBox="0 0 20 27" fill="none" xmlns="http://www.w3.org/2000/svg">
<path d="M10 1C5.0375 1 1 4.94287 1 9.78906C1 11.4263 1.4645 13.0244 2.3435 14.4106L9.4875 25.6538C9.6245 25.8691 9.8655 26 10.1245 26C10.1265 26 10.1285 26 10.1305 26C10.392 25.998 10.6335 25.8633 10.768 25.644L17.73 14.292C18.561 12.9351 19 11.3779 19 9.78906C19 4.94287 14.9625 1 10 1ZM16.4435 13.54L10.1135 23.8608L3.6185 13.6392C2.8865 12.4849 2.49 11.1538 2.49 9.78906C2.49 5.75049 5.8645 2.45508 10 2.45508C14.1355 2.45508 17.505 5.75049 17.505 9.78906C17.505 11.1133 17.1345 12.4106 16.4435 13.54Z" fill="#FF595A" stroke="#FF595A" stroke-width="0.2"/>
<path d="M10 5.39453C7.5185 5.39453 5.5 7.36572 5.5 9.78906C5.5 12.1968 7.486 14.1836 10 14.1836C12.545 14.1836 14.5 12.1704 14.5 9.78906C14.5 7.36572 12.4815 5.39453 10 5.39453ZM10 12.7285C8.337 12.7285 6.99 11.4087 6.99 9.78906C6.99 8.17383 8.346 6.84961 10 6.84961C11.654 6.84961 13.005 8.17383 13.005 9.78906C13.005 11.3848 11.689 12.7285 10 12.7285Z" fill="#FF595A" stroke="#FF595A" stroke-width="0.2"/>
</svg>
