<svg width="9" height="10" viewBox="0 0 9 10" fill="none" xmlns="http://www.w3.org/2000/svg">
<path d="M0 9.40455C0 9.73284 0.269419 10.0005 0.599839 10.0005H8.39775C8.72817 10.0005 8.99759 9.73284 8.99759 9.40455C8.99759 9.07627 8.72817 8.80859 8.39267 8.80859H0.594756C0.264336 8.80859 0 9.07627 0 9.40455Z" fill="#FAFBFD"/>
<path d="M5.08866 0.59596C5.08866 0.267677 4.81924 0 4.48882 0C4.1584 0 3.88898 0.267677 3.88898 0.59596V5.41414L2.15554 3.56061C2.04371 3.44444 1.89629 3.37879 1.73871 3.37374C1.57604 3.36869 1.42354 3.42424 1.3117 3.53535C1.07278 3.76263 1.05753 4.14141 1.2812 4.37374L4.05165 7.33333C4.16857 7.45455 4.32107 7.5202 4.48882 7.5202C4.65149 7.5202 4.80907 7.45455 4.92599 7.32828L7.69643 4.37374C7.80318 4.25758 7.86418 4.11111 7.8591 3.9495C7.85402 3.78788 7.78793 3.64141 7.67102 3.53535C7.5541 3.42929 7.4016 3.36869 7.24401 3.37374C7.08134 3.37879 6.93393 3.44444 6.82718 3.56061L5.08866 5.41414V0.59596Z" fill="#FAFBFD"/>
</svg>
