<svg width="26" height="26" viewBox="0 0 26 26" fill="none" xmlns="http://www.w3.org/2000/svg">
<path d="M19.9776 15.8675C19.4855 15.3559 18.892 15.0824 18.263 15.0824C17.6391 15.0824 17.0405 15.3508 16.5281 15.8624L14.9252 17.458C14.7933 17.3871 14.6614 17.3212 14.5346 17.2554C14.352 17.1642 14.1795 17.0781 14.0324 16.9869C12.5309 16.0346 11.1663 14.7936 9.85753 13.1879C9.22344 12.3876 8.79734 11.7139 8.4879 11.0301C8.90386 10.6502 9.28939 10.2551 9.66477 9.87522C9.80681 9.73339 9.94884 9.58649 10.0909 9.44467C11.1561 8.38095 11.1561 7.00318 10.0909 5.93946L8.70603 4.55663C8.54877 4.3996 8.38645 4.23751 8.23427 4.07542C7.9299 3.76137 7.61032 3.43719 7.2806 3.13327C6.78854 2.647 6.20011 2.38867 5.58124 2.38867C4.96237 2.38867 4.36379 2.647 3.85652 3.13327C3.85145 3.13834 3.85145 3.13834 3.84637 3.1434L2.12165 4.88081C1.47234 5.52917 1.10204 6.31936 1.02087 7.23619C0.899128 8.71526 1.33538 10.093 1.67018 10.9947C2.49196 13.2082 3.71955 15.2597 5.5508 17.458C7.77265 20.1072 10.446 22.1991 13.4997 23.6732C14.6665 24.2253 16.2238 24.8787 17.9637 24.9901C18.0702 24.9952 18.1818 25.0003 18.2833 25.0003C19.4551 25.0003 20.4392 24.5798 21.2103 23.7441C21.2153 23.7339 21.2255 23.7289 21.2305 23.7187C21.4943 23.3996 21.7987 23.1109 22.1183 22.8019C22.3364 22.5942 22.5596 22.3764 22.7777 22.1485C23.2799 21.6268 23.5437 21.0189 23.5437 20.3959C23.5437 19.7678 23.2748 19.165 22.7625 18.6585L19.9776 15.8675ZM21.7936 21.2013C21.7885 21.2013 21.7885 21.2063 21.7936 21.2013C21.5958 21.414 21.3929 21.6065 21.1747 21.8192C20.845 22.1333 20.5102 22.4625 20.1957 22.8323C19.6834 23.3794 19.0797 23.6377 18.2884 23.6377C18.2123 23.6377 18.1311 23.6377 18.055 23.6326C16.5484 23.5364 15.1484 22.9488 14.0983 22.4473C11.2272 21.0595 8.70603 19.089 6.611 16.5918C4.88121 14.51 3.72463 12.5852 2.95865 10.5185C2.48689 9.25725 2.31441 8.27458 2.3905 7.34762C2.44123 6.75498 2.6695 6.26364 3.09054 5.84322L4.82033 4.11595C5.0689 3.88294 5.33268 3.75631 5.59138 3.75631C5.91097 3.75631 6.16967 3.94879 6.332 4.11088C6.33707 4.11595 6.34215 4.12101 6.34722 4.12608C6.65665 4.4148 6.95087 4.71365 7.26031 5.03277C7.41756 5.19486 7.57989 5.35695 7.74221 5.52411L9.12706 6.90694C9.66477 7.44386 9.66477 7.94026 9.12706 8.47719C8.97995 8.62408 8.83792 8.77098 8.69081 8.91281C8.2647 9.34842 7.85889 9.75365 7.41756 10.1487C7.40741 10.1589 7.39727 10.1639 7.3922 10.1741C6.95594 10.6097 7.03711 11.0352 7.12842 11.3239C7.13349 11.3391 7.13856 11.3543 7.14363 11.3695C7.5038 12.2407 8.01107 13.0613 8.78212 14.0389L8.78719 14.044C10.1873 15.7662 11.6634 17.1085 13.2918 18.1368C13.4997 18.2685 13.7128 18.3748 13.9157 18.4761C14.0983 18.5673 14.2708 18.6534 14.4179 18.7446C14.4382 18.7547 14.4585 18.7699 14.4788 18.7801C14.6512 18.8662 14.8136 18.9067 14.981 18.9067C15.402 18.9067 15.6658 18.6433 15.752 18.5572L17.4869 16.8248C17.6594 16.6526 17.9333 16.4449 18.2529 16.4449C18.5674 16.4449 18.8261 16.6425 18.9833 16.8147C18.9884 16.8198 18.9884 16.8198 18.9935 16.8248L21.7885 19.6158C22.311 20.1325 22.311 20.6644 21.7936 21.2013Z" fill="#FF595A" stroke="#FF595A" stroke-width="0.2"/>
<path d="M13.9714 6.70883C15.3005 6.9317 16.5078 7.5598 17.4716 8.52221C18.4354 9.48462 19.0593 10.6902 19.2876 12.0173C19.3434 12.3516 19.6325 12.5846 19.9623 12.5846C20.0029 12.5846 20.0384 12.5795 20.0789 12.5745C20.4543 12.5137 20.7029 12.1591 20.642 11.7843C20.3681 10.1786 19.6072 8.71469 18.4455 7.55473C17.2839 6.39478 15.8179 5.63498 14.2098 5.36145C13.8344 5.30067 13.4844 5.54887 13.4185 5.91864C13.3525 6.2884 13.596 6.64804 13.9714 6.70883Z" fill="#FF595A" stroke="#FF595A" stroke-width="0.2"/>
<path d="M24.9895 11.5868C24.5381 8.94272 23.2902 6.53669 21.3727 4.622C19.4552 2.70731 17.0457 1.46124 14.3977 1.01043C14.0274 0.944576 13.6774 1.19784 13.6115 1.56761C13.5506 1.94244 13.7991 2.29195 14.1745 2.3578C16.5384 2.75796 18.6943 3.8774 20.4089 5.58441C22.1235 7.29649 23.2395 9.44925 23.6402 11.8097C23.696 12.144 23.9851 12.377 24.3149 12.377C24.3555 12.377 24.391 12.3719 24.4315 12.3669C24.8019 12.3112 25.0555 11.9566 24.9895 11.5868Z" fill="#FF595A" stroke="#FF595A" stroke-width="0.2"/>
</svg>
