<svg width="26" height="19" viewBox="0 0 26 19" fill="none" xmlns="http://www.w3.org/2000/svg">
<path d="M3.10938 1.00024H22.8906C24.0536 1.00024 25 1.97872 25 3.1811V15.8194C25 17.0218 24.0536 18.0002 22.8906 18.0002H3.10938C1.94641 18.0002 1 17.0218 1 15.8194V3.1811C1 1.97872 1.94641 1.00024 3.10938 1.00024ZM3.38453 2.45415L3.66625 2.69646L12.1633 10.0115C12.6484 10.4288 13.352 10.4288 13.8372 10.0115L22.3338 2.69646L22.6155 2.45415H3.38453ZM23.5938 3.50386L16.6708 9.4639L23.5938 14.2274V3.50386ZM3.10938 16.5463H22.8906C23.2305 16.5463 23.5145 16.2958 23.5797 15.9643L15.543 10.4346L14.7367 11.1291C14.2338 11.5624 13.6169 11.779 13 11.779C12.3831 11.779 11.7663 11.5624 11.2633 11.1291L10.457 10.4346L2.42078 15.9643C2.48547 16.2958 2.76953 16.5463 3.10938 16.5463ZM2.40625 14.2274L9.32922 9.4639L2.40625 3.50386V14.2274Z" fill="#FF595A" stroke="#FF595A" stroke-width="0.2"/>
</svg>
