<svg width="137" height="20" viewBox="0 0 137 20" fill="none" xmlns="http://www.w3.org/2000/svg">
<g clip-path="url(#clip0)">
<path d="M15.7062 14.944V19.4252C15.7062 19.5168 15.7843 19.5931 15.8779 19.5931H19.8487C19.9424 19.5931 20.0205 19.5168 20.0205 19.4252V0.167854C20.0205 0.076297 19.9424 0 19.8487 0H15.8884C15.8259 0 15.7739 0.0305188 15.7426 0.0813835L12.0217 5.97152C11.0068 7.58393 10.5749 8.33672 10.3927 8.65717C10.247 8.9115 10.195 8.99796 10.0285 8.99796C9.83069 8.99796 9.78386 8.9115 9.63814 8.65717C9.45079 8.33672 9.01884 7.57884 8.00923 5.97152L4.27783 0.0813835C4.24661 0.0305188 4.18936 0 4.13212 0H0.176942C0.0780627 0 0 0.076297 0 0.167854V19.4252C0 19.5168 0.0780627 19.5931 0.171738 19.5931H4.13732C4.231 19.5931 4.30906 19.5168 4.30906 19.4252V14.944C4.30906 11.5005 4.21538 9.30824 4.17896 8.36724C4.15293 7.72126 4.15293 7.72126 4.24141 7.6297C4.29345 7.57884 4.3611 7.54832 4.43396 7.54832C4.63692 7.54832 4.63692 7.54832 6.15134 10.0661C6.3491 10.3917 6.50002 10.646 6.54686 10.7223L8.83149 14.5371C8.86272 14.588 8.91996 14.6185 8.98241 14.6185H11.0329C11.0953 14.6185 11.1526 14.588 11.1838 14.5371L13.4684 10.7274C13.5153 10.6511 13.6662 10.3967 13.8639 10.0712C15.3783 7.55341 15.3783 7.55341 15.5553 7.55341C15.6281 7.55341 15.727 7.58393 15.7791 7.63479C15.8675 7.72126 15.8675 7.72126 15.8415 8.36216C15.7999 9.29298 15.7062 11.4852 15.7062 14.944Z" fill="#003A70"/>
<path d="M43.7255 0.167854C43.7255 0.0762971 43.6474 0 43.5538 0H39.4997C39.406 0 39.328 0.0762971 39.328 0.167854V10.8037C39.328 14.3082 37.8812 16.0122 34.9096 16.0122C31.938 16.0122 30.4913 14.3082 30.4913 10.8037V0.167854C30.4913 0.0762971 30.4132 0 30.3195 0H26.2655C26.1718 0 26.0938 0.0762971 26.0938 0.167854V10.9156C26.0938 16.6022 29.388 19.9949 34.9096 19.9949C40.4313 19.9949 43.7307 16.6022 43.7307 10.9156V0.167854H43.7255Z" fill="#003A70"/>
<path d="M80.186 3.98779C80.2797 3.98779 80.3577 3.9115 80.3577 3.81994V0.167854C80.3577 0.076297 80.2797 0 80.186 0H63.6888C63.5951 0 63.517 0.076297 63.517 0.167854V3.81485C63.517 3.90641 63.5951 3.98271 63.6888 3.98271H68.9814C69.3717 3.98271 69.6944 4.29298 69.6944 4.67955V19.4252C69.6944 19.5168 69.7724 19.5931 69.8661 19.5931H73.9202C74.0138 19.5931 74.0919 19.5168 74.0919 19.4252V4.68464C74.0919 4.30315 74.4094 3.98779 74.8049 3.98779H80.186Z" fill="#003A70"/>
<path d="M89.0383 19.5931C89.132 19.5931 89.21 19.5168 89.21 19.4252V0.167854C89.21 0.076297 89.132 0 89.0383 0H84.9842C84.8906 0 84.8125 0.076297 84.8125 0.167854V19.4252C84.8125 19.5168 84.8906 19.5931 84.9842 19.5931H89.0383Z" fill="#003A70"/>
<path d="M50.5274 0C50.4337 0 50.3557 0.076297 50.3557 0.167854V14.9542C50.3557 17.5127 52.4842 19.5931 55.1019 19.5931H64.3185C64.4121 19.5931 64.4902 19.5168 64.4902 19.4252V15.7782C64.4902 15.6867 64.4121 15.6104 64.3185 15.6104H56.252C55.4297 15.6104 54.7584 14.9542 54.7584 14.1506V0.167854C54.7584 0.076297 54.6803 0 54.5866 0H50.5274Z" fill="#003A70"/>
<path d="M102.533 19.2784C102.439 19.3954 102.517 19.5734 102.673 19.5836C105.489 19.7463 108.179 18.5154 109.855 16.3282L111.921 13.6273C112.062 13.4442 111.926 13.1797 111.692 13.1797H108.663C107.815 13.1797 107.014 13.5663 106.498 14.2275L102.533 19.2784Z" fill="#FF595A"/>
<path d="M102.486 0.702298L109.787 10.0258L112.265 13.1794L115.267 17.096C116.47 18.6677 118.364 19.5934 120.378 19.5934H121.523C121.882 19.5934 122.09 19.1916 121.871 18.9068L115.731 10.977C115.262 10.3717 115.262 9.52732 115.736 8.92712L122.194 0.702298C122.413 0.422543 122.21 0.015625 121.845 0.015625H120.753C118.739 0.015625 116.844 0.946449 115.637 2.52325L112.723 6.33811C112.546 6.567 112.197 6.567 112.02 6.33811L109.767 3.36252C108.169 1.25672 105.65 0.015625 102.97 0.015625H102.824C102.47 0.015625 102.262 0.417456 102.486 0.702298Z" fill="#FF595A"/>
<path d="M127.429 9.81198C128.349 9.81198 129.095 9.08325 129.095 8.18431C129.095 7.28537 128.349 6.55664 127.429 6.55664C126.51 6.55664 125.764 7.28537 125.764 8.18431C125.764 9.08325 126.51 9.81198 127.429 9.81198Z" fill="#003A70"/>
<path d="M136.667 8.60627L132.233 2.86873C130.849 1.07829 128.684 0.0253906 126.389 0.0253906C126.035 0.0253906 125.837 0.422135 126.045 0.696805L132.571 9.13017C132.816 9.44553 132.816 9.88297 132.566 10.1983L125.723 18.9216C125.509 19.1963 125.707 19.593 126.061 19.593H126.082C128.335 19.593 130.464 18.5605 131.827 16.8057L136.667 10.5696C137.114 9.98979 137.114 9.19121 136.667 8.60627Z" fill="#003A70"/>
</g>
<defs>
<clipPath id="clip0">
<rect width="137" height="20" fill="white"/>
</clipPath>
</defs>
</svg>
