<svg width="130" height="20" viewBox="0 0 130 20" fill="none" xmlns="http://www.w3.org/2000/svg">
<path d="M14.7891 14.944V19.4252C14.7891 19.5168 14.8626 19.5931 14.9508 19.5931H18.6897C18.7779 19.5931 18.8514 19.5168 18.8514 19.4252V0.167854C18.8514 0.076297 18.7779 0 18.6897 0H14.9606C14.9018 0 14.8528 0.0305188 14.8234 0.0813835L11.3197 5.97152C10.3641 7.58393 9.95738 8.33672 9.78587 8.65717C9.64866 8.9115 9.59966 8.99796 9.44285 8.99796C9.25664 8.99796 9.21254 8.9115 9.07533 8.65717C8.89892 8.33672 8.49219 7.57884 7.54154 5.97152L4.02803 0.0813835C3.99863 0.0305188 3.94473 0 3.89083 0H0.16661C0.0735043 0 0 0.076297 0 0.167854V19.4252C0 19.5168 0.0735043 19.5931 0.161709 19.5931H3.89573C3.98393 19.5931 4.05744 19.5168 4.05744 19.4252V14.944C4.05744 11.5005 3.96923 9.30824 3.93493 8.36724C3.91043 7.72126 3.91043 7.72126 3.99373 7.6297C4.04274 7.57884 4.10644 7.54832 4.17504 7.54832C4.36615 7.54832 4.36615 7.54832 5.79214 10.0661C5.97835 10.3917 6.12046 10.646 6.16456 10.7223L8.31578 14.5371C8.34519 14.588 8.39909 14.6185 8.45789 14.6185H10.3886C10.4474 14.6185 10.5013 14.588 10.5307 14.5371L12.6819 10.7274C12.726 10.6511 12.8681 10.3967 13.0544 10.0712C14.4803 7.55341 14.4803 7.55341 14.647 7.55341C14.7156 7.55341 14.8087 7.58393 14.8577 7.63479C14.941 7.72126 14.941 7.72126 14.9165 8.36216C14.8773 9.29298 14.7891 11.4852 14.7891 14.944Z" fill="white"/>
<path d="M41.1722 0.167854C41.1722 0.0762971 41.0987 0 41.0105 0H37.1931C37.1049 0 37.0314 0.0762971 37.0314 0.167854V10.8037C37.0314 14.3082 35.6692 16.0122 32.8711 16.0122C30.073 16.0122 28.7107 14.3082 28.7107 10.8037V0.167854C28.7107 0.0762971 28.6372 0 28.549 0H24.7317C24.6435 0 24.57 0.0762971 24.57 0.167854V10.9156C24.57 16.6022 27.6719 19.9949 32.8711 19.9949C38.0703 19.9949 41.1771 16.6022 41.1771 10.9156V0.167854H41.1722Z" fill="white"/>
<path d="M75.5036 3.98779C75.5918 3.98779 75.6653 3.9115 75.6653 3.81994V0.167854C75.6653 0.076297 75.5918 0 75.5036 0H59.9697C59.8815 0 59.808 0.076297 59.808 0.167854V3.81485C59.808 3.90641 59.8815 3.98271 59.9697 3.98271H64.9533C65.3208 3.98271 65.6246 4.29298 65.6246 4.67955V19.4252C65.6246 19.5168 65.6981 19.5931 65.7863 19.5931H69.6036C69.6919 19.5931 69.7654 19.5168 69.7654 19.4252V4.68464C69.7654 4.30315 70.0643 3.98779 70.4367 3.98779H75.5036Z" fill="white"/>
<path d="M83.839 19.5931C83.9272 19.5931 84.0007 19.5168 84.0007 19.4252V0.167854C84.0007 0.076297 83.9272 0 83.839 0H80.0217C79.9335 0 79.86 0.076297 79.86 0.167854V19.4252C79.86 19.5168 79.9335 19.5931 80.0217 19.5931H83.839Z" fill="white"/>
<path d="M47.5769 0C47.4887 0 47.4152 0.076297 47.4152 0.167854V14.9542C47.4152 17.5127 49.4194 19.5931 51.8842 19.5931H60.5626C60.6508 19.5931 60.7243 19.5168 60.7243 19.4252V15.7782C60.7243 15.6867 60.6508 15.6104 60.5626 15.6104H52.9672C52.1929 15.6104 51.5608 14.9542 51.5608 14.1506V0.167854C51.5608 0.076297 51.4873 0 51.3991 0H47.5769Z" fill="white"/>
<path d="M96.5454 19.2777C96.4572 19.3947 96.5307 19.5727 96.6777 19.5829C99.3288 19.7457 101.862 18.5148 103.44 16.3276L105.386 13.6267C105.518 13.4435 105.39 13.179 105.17 13.179H102.318C101.519 13.179 100.765 13.5656 100.279 14.2269L96.5454 19.2777Z" fill="white"/>
<path d="M96.5013 0.701932L103.376 10.0254L105.709 13.179L108.536 17.0956C109.668 18.6673 111.452 19.5931 113.348 19.5931H114.427C114.765 19.5931 114.961 19.1912 114.755 18.9064L108.973 10.9766C108.532 10.3713 108.532 9.52696 108.977 8.92675L115.059 0.701932C115.265 0.422176 115.073 0.0152588 114.73 0.0152588H113.701C111.805 0.0152588 110.021 0.946083 108.884 2.52289L106.14 6.33774C105.974 6.56663 105.645 6.56663 105.479 6.33774L103.357 3.36216C101.852 1.25636 99.4807 0.0152588 96.9571 0.0152588H96.8198C96.4866 0.0152588 96.2906 0.41709 96.5013 0.701932Z" fill="white"/>
<path d="M119.988 9.8118C120.854 9.8118 121.556 9.08306 121.556 8.18413C121.556 7.28519 120.854 6.55646 119.988 6.55646C119.122 6.55646 118.42 7.28519 118.42 8.18413C118.42 9.08306 119.122 9.8118 119.988 9.8118Z" fill="white"/>
<path d="M128.686 8.6063L124.511 2.86876C123.208 1.07832 121.169 0.0254211 119.008 0.0254211C118.675 0.0254211 118.489 0.422166 118.685 0.696835L124.83 9.1302C125.06 9.44556 125.06 9.883 124.825 10.1984L118.381 18.9217C118.18 19.1963 118.366 19.5931 118.7 19.5931H118.719C120.841 19.5931 122.845 18.5605 124.129 16.8057L128.686 10.5697C129.108 9.98982 129.108 9.19124 128.686 8.6063Z" fill="white"/>
</svg>
