<svg width="390" height="74" viewBox="0 0 390 74" fill="none" xmlns="http://www.w3.org/2000/svg">
<path d="M14.5 0C9.69572 0 5.80005 3.97627 5.80005 8.88C5.80005 13.7837 9.69572 17.76 14.5 17.76C19.3044 17.7551 23.1952 13.7837 23.2 8.88C23.2 3.97627 19.3044 0 14.5 0ZM14.5 14.8C11.298 14.8 8.70005 12.1483 8.70005 8.88C8.70005 5.61167 11.298 2.96 14.5 2.96C17.7021 2.96 20.3 5.61167 20.3 8.88C20.3 12.1483 17.7021 14.8 14.5 14.8Z" fill="#FF5859"/>
<path d="M18.85 20.7197H10.15C4.54817 20.7271 0.00725 25.362 0 31.0797V51.7997C0 52.6162 0.650083 53.2797 1.45 53.2797H5.8V72.5197C5.8 73.3362 6.45008 73.9997 7.25 73.9997H21.75C22.5499 73.9997 23.2 73.3362 23.2 72.5197V53.2797H27.55C28.3499 53.2797 29 52.6162 29 51.7997V31.0797C28.9927 25.362 24.4518 20.7271 18.85 20.7197ZM26.1 50.3197H23.2V32.5597H20.3V71.0397H15.95V50.3197H13.05V71.0397H8.7V32.5597H5.8V50.3197H2.9V31.0797C2.90483 26.9949 6.148 23.6847 10.15 23.6797H18.85C22.852 23.6847 26.0952 26.9949 26.1 31.0797V50.3197Z" fill="#FF5859"/>
<path d="M174.5 0C169.696 0 165.8 3.97627 165.8 8.88C165.8 13.7837 169.696 17.76 174.5 17.76C179.304 17.7551 183.195 13.7837 183.2 8.88C183.2 3.97627 179.304 0 174.5 0ZM174.5 14.8C171.298 14.8 168.7 12.1483 168.7 8.88C168.7 5.61167 171.298 2.96 174.5 2.96C177.702 2.96 180.3 5.61167 180.3 8.88C180.3 12.1483 177.702 14.8 174.5 14.8Z" fill="#FF5859"/>
<path d="M178.85 20.7197H170.15C164.548 20.7271 160.007 25.362 160 31.0797V51.7997C160 52.6162 160.65 53.2797 161.45 53.2797H165.8V72.5197C165.8 73.3362 166.45 73.9997 167.25 73.9997H181.75C182.55 73.9997 183.2 73.3362 183.2 72.5197V53.2797H187.55C188.35 53.2797 189 52.6162 189 51.7997V31.0797C188.993 25.362 184.452 20.7271 178.85 20.7197ZM186.1 50.3197H183.2V32.5597H180.3V71.0397H175.95V50.3197H173.05V71.0397H168.7V32.5597H165.8V50.3197H162.9V31.0797C162.905 26.9949 166.148 23.6847 170.15 23.6797H178.85C182.852 23.6847 186.095 26.9949 186.1 31.0797V50.3197Z" fill="#FF5859"/>
<path d="M94.5 0C89.6957 0 85.8 3.97627 85.8 8.88C85.8 13.7837 89.6957 17.76 94.5 17.76C99.3044 17.7551 103.195 13.7837 103.2 8.88C103.2 3.97627 99.3044 0 94.5 0ZM94.5 14.8C91.298 14.8 88.7 12.1483 88.7 8.88C88.7 5.61167 91.298 2.96 94.5 2.96C97.7021 2.96 100.3 5.61167 100.3 8.88C100.3 12.1483 97.7021 14.8 94.5 14.8Z" fill="#FF5859"/>
<path d="M98.85 20.7197H90.15C84.5482 20.7271 80.0072 25.362 80 31.0797V51.7997C80 52.6162 80.6501 53.2797 81.45 53.2797H85.8V72.5197C85.8 73.3362 86.4501 73.9997 87.25 73.9997H101.75C102.55 73.9997 103.2 73.3362 103.2 72.5197V53.2797H107.55C108.35 53.2797 109 52.6162 109 51.7997V31.0797C108.993 25.362 104.452 20.7271 98.85 20.7197ZM106.1 50.3197H103.2V32.5597H100.3V71.0397H95.95V50.3197H93.05V71.0397H88.7V32.5597H85.8V50.3197H82.9V31.0797C82.9048 26.9949 86.148 23.6847 90.15 23.6797H98.85C102.852 23.6847 106.095 26.9949 106.1 31.0797V50.3197Z" fill="#FF5859"/>
<path d="M255.5 0C250.696 0 246.8 3.97627 246.8 8.88C246.8 13.7837 250.696 17.76 255.5 17.76C260.304 17.7551 264.195 13.7837 264.2 8.88C264.2 3.97627 260.304 0 255.5 0ZM255.5 14.8C252.298 14.8 249.7 12.1483 249.7 8.88C249.7 5.61167 252.298 2.96 255.5 2.96C258.702 2.96 261.3 5.61167 261.3 8.88C261.3 12.1483 258.702 14.8 255.5 14.8Z" fill="#FF5859"/>
<path d="M259.85 20.7197H251.15C245.548 20.7271 241.007 25.362 241 31.0797V51.7997C241 52.6162 241.65 53.2797 242.45 53.2797H246.8V72.5197C246.8 73.3362 247.45 73.9997 248.25 73.9997H262.75C263.55 73.9997 264.2 73.3362 264.2 72.5197V53.2797H268.55C269.35 53.2797 270 52.6162 270 51.7997V31.0797C269.993 25.362 265.452 20.7271 259.85 20.7197ZM267.1 50.3197H264.2V32.5597H261.3V71.0397H256.95V50.3197H254.05V71.0397H249.7V32.5597H246.8V50.3197H243.9V31.0797C243.905 26.9949 247.148 23.6847 251.15 23.6797H259.85C263.852 23.6847 267.095 26.9949 267.1 31.0797V50.3197Z" fill="#FF5859"/>
<path d="M334.5 0C329.696 0 325.8 3.97627 325.8 8.88C325.8 13.7837 329.696 17.76 334.5 17.76C339.304 17.7551 343.195 13.7837 343.2 8.88C343.2 3.97627 339.304 0 334.5 0ZM334.5 14.8C331.298 14.8 328.7 12.1483 328.7 8.88C328.7 5.61167 331.298 2.96 334.5 2.96C337.702 2.96 340.3 5.61167 340.3 8.88C340.3 12.1483 337.702 14.8 334.5 14.8Z" fill="#FF5859"/>
<path d="M338.85 20.7197H330.15C324.548 20.7271 320.007 25.362 320 31.0797V51.7997C320 52.6162 320.65 53.2797 321.45 53.2797H325.8V72.5197C325.8 73.3362 326.45 73.9997 327.25 73.9997H341.75C342.55 73.9997 343.2 73.3362 343.2 72.5197V53.2797H347.55C348.35 53.2797 349 52.6162 349 51.7997V31.0797C348.993 25.362 344.452 20.7271 338.85 20.7197ZM346.1 50.3197H343.2V32.5597H340.3V71.0397H335.95V50.3197H333.05V71.0397H328.7V32.5597H325.8V50.3197H322.9V31.0797C322.905 26.9949 326.148 23.6847 330.15 23.6797H338.85C342.852 23.6847 346.095 26.9949 346.1 31.0797V50.3197Z" fill="#FF5859"/>
<g clip-path="url(#clip0)">
<path d="M53.5 0C48.53 0 44.5 3.97627 44.5 8.88C44.505 13.7837 48.53 17.7551 53.5 17.76C58.47 17.76 62.5 13.7837 62.5 8.88C62.5 3.97627 58.47 0 53.5 0ZM53.5 14.8C50.1875 14.8 47.5 12.1483 47.5 8.88C47.5 5.61167 50.1875 2.96 53.5 2.96C56.8125 2.96 59.5 5.61167 59.5 8.88C59.5 12.1483 56.8125 14.8 53.5 14.8Z" fill="#FF5859"/>
<path d="M69.935 51.3755L60.935 21.7755C60.7475 21.1489 60.1625 20.7197 59.5 20.7197H47.5C46.8375 20.7197 46.2525 21.1489 46.0625 21.7755L37.0625 51.3755C36.925 51.8269 37.0125 52.3128 37.3 52.6877C37.5825 53.0602 38.0275 53.2797 38.5 53.2797H44.5V72.5197C44.5 73.3362 45.1725 73.9997 46 73.9997H61C61.8275 73.9997 62.5 73.3362 62.5 72.5197V53.2797H68.5C69.3275 53.2797 70 52.6162 70 51.7997C70 51.6567 69.9775 51.5136 69.935 51.3755ZM61 50.3197C60.1725 50.3197 59.5 50.9833 59.5 51.7997V71.0397H55V50.3197H52V71.0397H47.5V51.7997C47.5 50.9833 46.8275 50.3197 46 50.3197H40.515L48.615 23.6797H58.3825L66.4825 50.3197H61Z" fill="#FF5859"/>
</g>
<g clip-path="url(#clip1)">
<path d="M213.5 0C208.53 0 204.5 3.97627 204.5 8.88C204.505 13.7837 208.53 17.7551 213.5 17.76C218.47 17.76 222.5 13.7837 222.5 8.88C222.5 3.97627 218.47 0 213.5 0ZM213.5 14.8C210.188 14.8 207.5 12.1483 207.5 8.88C207.5 5.61167 210.188 2.96 213.5 2.96C216.812 2.96 219.5 5.61167 219.5 8.88C219.5 12.1483 216.812 14.8 213.5 14.8Z" fill="#FF5859"/>
<path d="M229.935 51.3755L220.935 21.7755C220.748 21.1489 220.163 20.7197 219.5 20.7197H207.5C206.838 20.7197 206.253 21.1489 206.063 21.7755L197.063 51.3755C196.925 51.8269 197.013 52.3128 197.3 52.6877C197.583 53.0602 198.028 53.2797 198.5 53.2797H204.5V72.5197C204.5 73.3362 205.173 73.9997 206 73.9997H221C221.828 73.9997 222.5 73.3362 222.5 72.5197V53.2797H228.5C229.328 53.2797 230 52.6162 230 51.7997C230 51.6567 229.978 51.5136 229.935 51.3755ZM221 50.3197C220.173 50.3197 219.5 50.9833 219.5 51.7997V71.0397H215V50.3197H212V71.0397H207.5V51.7997C207.5 50.9833 206.828 50.3197 206 50.3197H200.515L208.615 23.6797H218.383L226.483 50.3197H221Z" fill="#FF5859"/>
</g>
<g clip-path="url(#clip2)">
<path d="M133.5 0C128.53 0 124.5 3.97627 124.5 8.88C124.505 13.7837 128.53 17.7551 133.5 17.76C138.47 17.76 142.5 13.7837 142.5 8.88C142.5 3.97627 138.47 0 133.5 0ZM133.5 14.8C130.188 14.8 127.5 12.1483 127.5 8.88C127.5 5.61167 130.188 2.96 133.5 2.96C136.812 2.96 139.5 5.61167 139.5 8.88C139.5 12.1483 136.812 14.8 133.5 14.8Z" fill="#FF5859"/>
<path d="M149.935 51.3755L140.935 21.7755C140.748 21.1489 140.163 20.7197 139.5 20.7197H127.5C126.838 20.7197 126.253 21.1489 126.063 21.7755L117.063 51.3755C116.925 51.8269 117.013 52.3128 117.3 52.6877C117.583 53.0602 118.028 53.2797 118.5 53.2797H124.5V72.5197C124.5 73.3362 125.173 73.9997 126 73.9997H141C141.828 73.9997 142.5 73.3362 142.5 72.5197V53.2797H148.5C149.328 53.2797 150 52.6162 150 51.7997C150 51.6567 149.978 51.5136 149.935 51.3755ZM141 50.3197C140.173 50.3197 139.5 50.9833 139.5 51.7997V71.0397H135V50.3197H132V71.0397H127.5V51.7997C127.5 50.9833 126.828 50.3197 126 50.3197H120.515L128.615 23.6797H138.383L146.483 50.3197H141Z" fill="#FF5859"/>
</g>
<g clip-path="url(#clip3)">
<path d="M293.5 0C288.53 0 284.5 3.97627 284.5 8.88C284.505 13.7837 288.53 17.7551 293.5 17.76C298.47 17.76 302.5 13.7837 302.5 8.88C302.5 3.97627 298.47 0 293.5 0ZM293.5 14.8C290.188 14.8 287.5 12.1483 287.5 8.88C287.5 5.61167 290.188 2.96 293.5 2.96C296.812 2.96 299.5 5.61167 299.5 8.88C299.5 12.1483 296.812 14.8 293.5 14.8Z" fill="#FF5859"/>
<path d="M309.935 51.3755L300.935 21.7755C300.748 21.1489 300.163 20.7197 299.5 20.7197H287.5C286.838 20.7197 286.253 21.1489 286.063 21.7755L277.063 51.3755C276.925 51.8269 277.013 52.3128 277.3 52.6877C277.583 53.0602 278.028 53.2797 278.5 53.2797H284.5V72.5197C284.5 73.3362 285.173 73.9997 286 73.9997H301C301.828 73.9997 302.5 73.3362 302.5 72.5197V53.2797H308.5C309.328 53.2797 310 52.6162 310 51.7997C310 51.6567 309.978 51.5136 309.935 51.3755ZM301 50.3197C300.173 50.3197 299.5 50.9833 299.5 51.7997V71.0397H295V50.3197H292V71.0397H287.5V51.7997C287.5 50.9833 286.828 50.3197 286 50.3197H280.515L288.615 23.6797H298.383L306.483 50.3197H301Z" fill="#FF5859"/>
</g>
<g clip-path="url(#clip4)">
<path d="M373.5 0C368.53 0 364.5 3.97627 364.5 8.88C364.505 13.7837 368.53 17.7551 373.5 17.76C378.47 17.76 382.5 13.7837 382.5 8.88C382.5 3.97627 378.47 0 373.5 0ZM373.5 14.8C370.188 14.8 367.5 12.1483 367.5 8.88C367.5 5.61167 370.188 2.96 373.5 2.96C376.812 2.96 379.5 5.61167 379.5 8.88C379.5 12.1483 376.812 14.8 373.5 14.8Z" fill="#FF5859"/>
<path d="M389.935 51.3755L380.935 21.7755C380.748 21.1489 380.163 20.7197 379.5 20.7197H367.5C366.838 20.7197 366.253 21.1489 366.063 21.7755L357.063 51.3755C356.925 51.8269 357.013 52.3128 357.3 52.6877C357.583 53.0602 358.028 53.2797 358.5 53.2797H364.5V72.5197C364.5 73.3362 365.173 73.9997 366 73.9997H381C381.828 73.9997 382.5 73.3362 382.5 72.5197V53.2797H388.5C389.328 53.2797 390 52.6162 390 51.7997C390 51.6567 389.978 51.5136 389.935 51.3755ZM381 50.3197C380.173 50.3197 379.5 50.9833 379.5 51.7997V71.0397H375V50.3197H372V71.0397H367.5V51.7997C367.5 50.9833 366.828 50.3197 366 50.3197H360.515L368.615 23.6797H378.383L386.483 50.3197H381Z" fill="#FF5859"/>
</g>
<defs>
<clipPath id="clip0">
<rect width="33" height="74" fill="white" transform="translate(37)"/>
</clipPath>
<clipPath id="clip1">
<rect width="33" height="74" fill="white" transform="translate(197)"/>
</clipPath>
<clipPath id="clip2">
<rect width="33" height="74" fill="white" transform="translate(117)"/>
</clipPath>
<clipPath id="clip3">
<rect width="33" height="74" fill="white" transform="translate(277)"/>
</clipPath>
<clipPath id="clip4">
<rect width="33" height="74" fill="white" transform="translate(357)"/>
</clipPath>
</defs>
</svg>
